<svg width="1080" height="1080" viewBox="0 0 1080 1080" fill="none" xmlns="http://www.w3.org/2000/svg">
<rect width="1080" height="1080" fill="white"/>
<path d="M345.031 786.016C314.516 786.016 286.742 781.164 261.711 771.461C236.82 761.898 215.305 748.328 197.164 730.75C179.164 713.172 165.242 692.078 155.398 667.469C145.695 642.859 140.844 615.648 140.844 585.836C140.844 556.023 145.695 528.883 155.398 504.414C165.242 479.805 179.164 458.641 197.164 440.922C215.164 423.062 236.609 409.352 261.5 399.789C286.391 390.086 314.094 385.234 344.609 385.234C374 385.234 400.648 389.805 424.555 398.945C448.602 408.086 469.273 421.094 486.57 437.969C503.867 454.844 517.156 475.023 526.438 498.508C535.859 521.992 540.57 548.219 540.57 577.188C540.57 595.469 538.602 611.781 534.664 626.125C530.727 640.469 524.891 652.633 517.156 662.617C509.422 672.602 500 680.195 488.891 685.398C477.922 690.602 465.336 693.203 451.133 693.203C438.336 693.203 427.93 691.234 419.914 687.297C412.039 683.359 406.133 678.578 402.195 672.953C398.258 667.188 395.727 661.703 394.602 656.5H394.391C390.875 665.922 383.984 674.148 373.719 681.18C363.453 688.211 349.812 691.727 332.797 691.727C313.672 691.727 297.078 687.016 283.016 677.594C269.094 668.172 258.336 655.445 250.742 639.414C243.148 623.242 239.352 605.312 239.352 585.625C239.352 563.969 243.641 545.336 252.219 529.727C260.938 514.117 272.398 502.094 286.602 493.656C300.805 485.078 316.414 480.789 333.43 480.789C347.633 480.789 359.586 483.461 369.289 488.805C379.133 494.008 386.023 499.984 389.961 506.734H390.383V485.641H431.305V625.914C431.305 634.773 433.203 641.312 437 645.531C440.797 649.609 446.07 651.648 452.82 651.648C461.539 651.648 468.922 648.766 474.969 643C481.156 637.234 485.867 628.938 489.102 618.109C492.336 607.141 493.953 593.922 493.953 578.453C493.953 554.969 490.508 534.016 483.617 515.594C476.727 497.172 466.742 481.492 453.664 468.555C440.586 455.617 424.906 445.773 406.625 439.023C388.344 432.273 367.883 428.898 345.242 428.898C321.055 428.898 299.328 432.555 280.062 439.867C260.797 447.18 244.344 457.656 230.703 471.297C217.062 484.938 206.586 501.461 199.273 520.867C192.102 540.133 188.516 561.789 188.516 585.836C188.516 609.742 192.102 631.398 199.273 650.805C206.586 670.07 217.062 686.523 230.703 700.164C244.344 713.805 260.797 724.211 280.062 731.383C299.328 738.695 320.914 742.352 344.82 742.352C358.32 742.352 370.695 741.367 381.945 739.398C393.336 737.43 403.391 735.109 412.109 732.438C420.969 729.766 428.211 727.375 433.836 725.266L449.445 765.977C443.398 768.367 435.312 771.109 425.188 774.203C415.062 777.438 403.25 780.18 389.75 782.43C376.25 784.82 361.344 786.016 345.031 786.016ZM338.07 648.906C349.18 648.906 358.531 646.445 366.125 641.523C373.719 636.602 379.484 629.43 383.422 620.008C387.359 610.445 389.328 598.984 389.328 585.625C389.328 572.125 387.359 560.664 383.422 551.242C379.484 541.68 373.719 534.508 366.125 529.727C358.531 524.805 349.18 522.344 338.07 522.344C326.82 522.344 317.188 524.805 309.172 529.727C301.297 534.508 295.25 541.609 291.031 551.031C286.812 560.453 284.703 571.984 284.703 585.625C284.703 599.125 286.812 610.586 291.031 620.008C295.25 629.43 301.297 636.602 309.172 641.523C317.188 646.445 326.82 648.906 338.07 648.906ZM673.312 474.25V517.07H602.648V474.25H673.312ZM574.594 413.5H627.75V633.086C627.75 640.961 629.367 646.445 632.602 649.539C635.836 652.633 641.812 654.18 650.531 654.18C653.906 654.18 657.844 654.18 662.344 654.18C666.844 654.18 670.5 654.18 673.312 654.18V697C669.516 697 664.664 697 658.758 697C652.852 697 647.016 697 641.25 697C618.469 697 601.664 692.43 590.836 683.289C580.008 674.008 574.594 659.875 574.594 640.891V413.5ZM817.867 702.062C791.992 702.062 769.773 697.773 751.211 689.195C732.648 680.617 718.375 668.312 708.391 652.281C698.406 636.25 693.414 616.984 693.414 594.484H748.047C748.188 607.141 751.07 618.039 756.695 627.18C762.32 636.18 770.336 643.07 780.742 647.852C791.289 652.633 803.805 655.023 818.289 655.023C831.367 655.023 842.758 653.195 852.461 649.539C862.305 645.742 869.898 640.469 875.242 633.719C880.727 626.828 883.469 618.812 883.469 609.672C883.469 602.219 881.5 595.75 877.562 590.266C873.625 584.781 867.367 580 858.789 575.922C850.352 571.844 839.102 568.188 825.039 564.953L791.289 557.359C759.93 550.188 736.797 539.57 721.891 525.508C706.984 511.445 699.531 493.375 699.531 471.297C699.531 452.453 704.312 436.07 713.875 422.148C723.578 408.086 737.078 397.188 754.375 389.453C771.812 381.578 792.062 377.641 815.125 377.641C838.609 377.641 858.859 381.719 875.875 389.875C893.031 397.891 906.32 409.422 915.742 424.469C925.305 439.375 930.367 457.234 930.93 478.047H877.984C876.859 461.453 870.672 448.445 859.422 439.023C848.172 429.602 833.336 424.891 814.914 424.891C803.383 424.891 793.117 426.789 784.117 430.586C775.117 434.242 768.086 439.375 763.023 445.984C757.961 452.453 755.43 459.977 755.43 468.555C755.43 475.586 757.328 481.703 761.125 486.906C765.062 491.969 771.18 496.469 779.477 500.406C787.914 504.344 798.953 507.859 812.594 510.953L844.445 518.336C860.758 521.992 874.82 526.492 886.633 531.836C898.586 537.039 908.43 543.227 916.164 550.398C923.898 557.57 929.594 565.797 933.25 575.078C937.047 584.359 938.945 594.766 938.945 606.297C938.945 625.844 934.023 642.789 924.18 657.133C914.336 671.477 900.344 682.586 882.203 690.461C864.062 698.195 842.617 702.062 817.867 702.062Z" fill="#122620"/>
</svg>
